<svg xmlns="http://www.w3.org/2000/svg" width="140.725" height="89.533" viewBox="0 0 140.725 89.533">
  <g id="お問い合わせのアイコン_Q_Aの吹き出し_1" data-name="お問い合わせのアイコン Q &amp; Aの吹き出し 1" transform="translate(0 -93.126)">
    <path id="パス_53" data-name="パス 53" d="M61.51,160.422a39.915,39.915,0,0,0,13.766-10.731,32.719,32.719,0,0,0,5.62-31.47c-3.529-9.894-10.992-16.914-20.011-20.973-.241-.109-.484-.216-.729-.321q-1.092-.467-2.21-.879c-.148-.054-.291-.115-.44-.167-.9-.321-1.821-.607-2.746-.872-.173-.049-.347-.1-.521-.143-11.194-3.073-23.733-2.1-33.9,3.116C8.648,103.979,0,115.554,0,129c0,12.553,7.526,24.1,19.562,30.59l.946,6.736a8.886,8.886,0,0,0,14.137,5.715l9.12-7.123a46.258,46.258,0,0,0,17.742-4.49Zm2.317-11.741a31.607,31.607,0,0,1-3.079,2.163c-.175.107-.363.2-.54.3a34.29,34.29,0,0,1-3.162,1.665c-.134.061-.277.112-.413.172a36.535,36.535,0,0,1-3.566,1.365c-.035.012-.073.019-.108.031a38.621,38.621,0,0,1-12.28,1.773l-7.66,5.982-3.784,2.928q-.823-5.719-1.618-11.44c-7.723-3.009-14.555-8.887-17.438-16.8L9.8,135.787c.072.2.384,1.066.374,1.037-3.5-9.712.121-20.076,7.729-26.672,7.789-6.753,18.648-9.352,28.756-7.976,9.538,1.3,18.942,6.355,23.941,14.8a23.648,23.648,0,0,1-.887,25.43,28.527,28.527,0,0,1-5.635,6.087C64,148.56,63.91,148.616,63.827,148.681Z" fill="#adce29"/>
    <path id="パス_54" data-name="パス 54" d="M313.67,145.969a42.9,42.9,0,0,0-27.529-9.607,44.5,44.5,0,0,0-17.945,3.726c-.273.118-.552.226-.82.349l0,.005-.04.017a37.467,37.467,0,0,1,3.635,7.553c.005.016.013.034.017.049h0c.005.014.013.027.017.041a35.59,35.59,0,0,1,15.13-3.285c17.275,0,31.28,11.677,31.28,26.082a22.184,22.184,0,0,1-1.32,7.512c-.013.052-.039.1-.052.143-.194.529-.413,1.047-.646,1.564-.1.233-.22.452-.337.673-.168.335-.323.672-.5,1-.155.284-.323.543-.479.815s-.335.555-.5.827c-.168.246-.335.479-.516.725-.207.284-.4.582-.621.866-.13.168-.272.323-.413.491-.286.35-.57.712-.866,1.048a2.1,2.1,0,0,0-.182.181,31.149,31.149,0,0,1-11.625,7.81l-1.021,7.332-.358,2.474-.191,1.184-10.96-8.572c-.233.013-.453.026-.685.026-9.841,0-18.634-3.814-24.323-9.75a44.041,44.041,0,0,1-3.31,3.053c-.986.822-2.023,1.605-3.081,2.345-.028.017-.054.039-.082.056l0,0c-.012.009-.023.018-.035.027a34.7,34.7,0,0,0,3.311,3.117,42.6,42.6,0,0,0,25.229,9.542l8.755,6.84a8.463,8.463,0,0,0,13.577-5.5l.9-6.465c11.561-6.234,18.776-17.315,18.776-29.366C325.864,161.382,321.531,152.526,313.67,145.969Z" transform="translate(-185.139 -31.352)" fill="#adce29"/>
    <path id="パス_55" data-name="パス 55" d="M328.008,238.672l2.069-5.508h9.582l2.069,5.508h5.508l-10.28-25.486h-4.176l-7.464,18.506-2.815,6.938h.017l-.017.043Zm10.147-9.491h-4.873l-1.711-.015,3.292-8.519,2.435,6.279Z" transform="translate(-233.86 -87.061)" fill="#adce29"/>
    <path id="パス_56" data-name="パス 56" d="M130.254,195.487a8.238,8.238,0,0,0,1-1.911,10.519,10.519,0,0,0,.522-2.16,23.711,23.711,0,0,0,.2-2.542q.04-1.375.04-3.019,0-1.95-.06-3.517c-.015-.384-.091-.7-.126-1.063-.027-.287-.059-.565-.1-.837-.047-.32-.052-.685-.117-.986a9.4,9.4,0,0,0-.862-2.428,8.347,8.347,0,0,0-1.665-2.141,10.346,10.346,0,0,0-3.291-2.122,12.959,12.959,0,0,0-8.667,0,10.82,10.82,0,0,0-3.332,2.122,8.365,8.365,0,0,0-1.665,2.141,8.911,8.911,0,0,0-.842,2.428c-.065.326-.074.724-.119,1.074-.028.212-.051.425-.072.646-.039.4-.114.744-.13,1.166q-.06,1.569-.06,3.517t.06,3.516a18.409,18.409,0,0,0,.321,2.887,8.926,8.926,0,0,0,.842,2.426,8.372,8.372,0,0,0,1.665,2.141,10.8,10.8,0,0,0,3.332,2.121,11.518,11.518,0,0,0,4.333.746,12.148,12.148,0,0,0,3.149-.382,10.309,10.309,0,0,0,2.59-1.07l2.567,2.37,2.76-2.628.14-.13,0,0,.032-.03Zm-3.913-6.288a8.615,8.615,0,0,1-.329,1.817c-.038.106-.062.229-.108.328l-2.15-2.05-2.766,2.671-.133.126h0l-.032.031,1.989,1.865.487.471a3.433,3.433,0,0,1-1.835.493,4.831,4.831,0,0,1-2.067-.421,5.279,5.279,0,0,1-1.545-1.07,3.905,3.905,0,0,1-.662-.936,5.24,5.24,0,0,1-.421-1.338,14.935,14.935,0,0,1-.22-2.1q-.059-1.281-.061-3.23t.061-3.231a15.414,15.414,0,0,1,.22-2.122,5.245,5.245,0,0,1,.421-1.357,3.921,3.921,0,0,1,.662-.937,5.321,5.321,0,0,1,5.678-1.051,4.529,4.529,0,0,1,1.5,1.051,3.9,3.9,0,0,1,.662.937,5.277,5.277,0,0,1,.422,1.357,17.716,17.716,0,0,1,.239,2.122q.081,1.28.082,3.231Q126.443,187.917,126.342,189.2Z" transform="translate(-80.428 -57.206)" fill="#adce29"/>
  </g>
</svg>
