<svg xmlns="http://www.w3.org/2000/svg" width="33.626" height="33.647" viewBox="0 0 33.626 33.647">
  <g id="虫眼鏡の無料アイコン8" transform="translate(0)">
    <path id="パス_10" data-name="パス 10" d="M22.033,19.183a12.091,12.091,0,1,0-2.689,2.689l.935.933,2.689-2.689ZM18.45,18.29a8.776,8.776,0,1,1,0-12.411A8.777,8.777,0,0,1,18.45,18.29Z" transform="translate(-0.159 0.001)" fill="#fff"/>
    <path id="パス_11" data-name="パス 11" d="M88.61,116.541a6.94,6.94,0,0,0-.444,7.861.488.488,0,0,0,.833-.508h0a5.966,5.966,0,0,1,.38-6.754.487.487,0,0,0-.769-.6Z" transform="translate(-81.438 -108.706)" fill="#fff"/>
    <path id="パス_12" data-name="パス 12" d="M327.593,323.288l-9.079-8.11-3.153,3.153,8.11,9.08c.825,1.067,2.31.91,3.644-.424S328.661,324.113,327.593,323.288Z" transform="translate(-294.647 -294.465)" fill="#fff"/>
  </g>
</svg>
