<svg id="グループ_19" data-name="グループ 19" xmlns="http://www.w3.org/2000/svg" width="38.766" height="37.888" viewBox="0 0 38.766 37.888">
  <path id="パス_69" data-name="パス 69" d="M32.815,10.48A20.935,20.935,0,0,0,19.383,5.8,20.936,20.936,0,0,0,5.952,10.48,15.743,15.743,0,0,0,0,22.648,15.742,15.742,0,0,0,5.952,34.816a20.779,20.779,0,0,0,12.314,4.658l4.272,3.336a4.124,4.124,0,0,0,6.622-2.677l.443-3.155c5.638-3.039,9.163-8.449,9.163-14.329A15.742,15.742,0,0,0,32.815,10.48Zm1.159,15.9q-.143.389-.314.768c-.051.111-.109.219-.164.329-.08.163-.159.328-.247.487-.074.134-.156.263-.236.394s-.16.272-.247.4-.164.232-.245.348c-.1.144-.2.29-.31.43-.062.08-.13.157-.195.236-.14.173-.28.346-.431.513-.027.03-.057.059-.085.089a15.148,15.148,0,0,1-5.671,3.809l-.5,3.575-.258,1.8L19.711,35.37c-.109,0-.218.007-.328.007-8.427,0-15.259-5.7-15.259-12.729S10.956,9.919,19.383,9.919s15.259,5.7,15.259,12.729A10.78,10.78,0,0,1,34,26.316C33.991,26.337,33.981,26.358,33.973,26.379Z" transform="translate(0 -5.795)" fill="#fff"/>
  <path id="パス_70" data-name="パス 70" d="M129.134,207.787a2.057,2.057,0,1,0,2.057,2.057A2.057,2.057,0,0,0,129.134,207.787Z" transform="translate(-117.451 -192.485)" fill="#fff"/>
  <path id="パス_71" data-name="パス 71" d="M230.775,207.787a2.057,2.057,0,1,0,2.057,2.057A2.057,2.057,0,0,0,230.775,207.787Z" transform="translate(-211.392 -192.485)" fill="#fff"/>
  <path id="パス_72" data-name="パス 72" d="M332.416,207.787a2.057,2.057,0,1,0,2.056,2.057A2.057,2.057,0,0,0,332.416,207.787Z" transform="translate(-305.333 -192.485)" fill="#fff"/>
</svg>
