<svg xmlns="http://www.w3.org/2000/svg" width="66.674" height="78.22" viewBox="0 0 66.674 78.22">
  <g id="グループ_12" data-name="グループ 12" transform="translate(-1775.881 -25)">
    <path id="パス_16" data-name="パス 16" d="M155.81,0V26.566h5.105V5.105h35.992l-11.438,7.739a4.7,4.7,0,0,0-2.068,3.9V60.47H160.915V43.094H155.81V65.575H183.4V76.412a1.81,1.81,0,0,0,2.823,1.5l18.229-12.334V0Z" transform="translate(1638.101 25)" fill="#fff"/>
    <path id="パス_17" data-name="パス 17" d="M66.949,180.617a.723.723,0,0,0,1.19.552l11.923-10.088L68.14,160.992a.723.723,0,0,0-1.19.552v5.1H37.79v8.871H66.95v5.1Z" transform="translate(1738.091 -111.251)" fill="#fff"/>
  </g>
</svg>
