<svg xmlns="http://www.w3.org/2000/svg" width="385.252" height="64" viewBox="0 0 385.252 64">
  <g id="ロゴ" transform="translate(-47.084 -126.243)">
    <path id="パス_1" data-name="パス 1" d="M91.845,144.08c0-1.816,0-7.414,7.64-7.414,3.934,0,8.17.908,8.17,7.414v22.015c0,1.362,0,6.733,3.783,6.733a6.011,6.011,0,0,0,3.1-1.135,6.392,6.392,0,0,1,3.48-1.286c3.4,0,6.582,3.4,6.582,6.884,0,5.446-8.095,9.228-15.962,9.228-16.793,0-16.793-14.3-16.793-20.954Zm26.779,0c0-2.5.53-7.414,7.641-7.414,4.085,0,8.17.985,8.17,7.414v34.951c0,3.556-1.212,7.413-7.943,7.413-3.4,0-4.539-.908-5.22-1.362,2.723-1.814,5.144-4.084,5.144-7.791a8.765,8.765,0,0,0-7.792-8.624Z" transform="translate(13.622 3.172)" fill="#fab700"/>
    <path id="パス_2" data-name="パス 2" d="M149.748,179.06c0,2.723-.68,7.413-7.64,7.413-4.01,0-8.17-.907-8.17-7.413V144.109c0-4.615,2.118-7.414,7.792-7.414,3.4,0,4.236.531,5.371,1.287-3.179,1.663-5.523,3.781-5.523,7.564,0,1.286.453,8.473,8.169,9.305Zm26.781,0c0,1.967,0,7.413-7.641,7.413-3.858,0-8.17-.831-8.17-7.413V157.121c0-2.194-.151-6.884-3.631-6.884-.983,0-1.814.53-4.16,1.891a6.108,6.108,0,0,1-3.1.832c-3.253,0-6.43-3.1-6.43-7.187,0-5.977,9-9.078,15.432-9.078,17.7,0,17.7,14.676,17.7,20.956Z" transform="translate(26.433 3.181)" fill="#54a421"/>
    <g id="グループ_1" data-name="グループ 1" transform="translate(215.275 140.33)">
      <path id="パス_3" data-name="パス 3" d="M205.593,157.923c.227,3.858-3.33,8.549-8.624,8.7l10.743,10.666a6.6,6.6,0,0,0,4.463,2.27c2.647,0,6.353-3.176,6.353-6.429,0-1.891-1.058-3.179-2.268-4.463Z" transform="translate(-169.659 -130.688)" fill="#47b8d9"/>
      <path id="パス_4" data-name="パス 4" d="M190.783,160.344c1.967,1.967,3.631,2.27,4.463,2.27,2.8,0,6.355-3.253,6.355-6.43a5.941,5.941,0,0,0-2.194-4.463l-12.558-12.483a6.481,6.481,0,0,0-4.388-2.194c-2.875,0-6.43,3.177-6.43,6.43a6.478,6.478,0,0,0,2.194,4.388Z" transform="translate(-176.031 -137.043)" fill="#47b8d9"/>
      <path id="パス_5" data-name="パス 5" d="M210.15,164.731a5.256,5.256,0,0,0-1.135-3.253l13.693-13.617A6.835,6.835,0,0,0,224.9,143.4c0-2.723-3.176-6.355-6.429-6.355-.908,0-2.345.227-4.388,2.194l-12.406,12.331a6.469,6.469,0,0,1,1.739,4.615c0,4.085-4.236,8.17-8.246,8.17a7.245,7.245,0,0,1-4.538-1.664L178.225,175.02a6.581,6.581,0,0,0-2.194,4.463c0,2.722,3.179,6.355,6.43,6.355a6.477,6.477,0,0,0,4.388-2.2l13.693-13.692a5.251,5.251,0,0,0,3.254,1.21C206.746,171.162,210.15,167.833,210.15,164.731Z" transform="translate(-176.031 -137.043)" fill="#47b8d9"/>
    </g>
    <path id="パス_6" data-name="パス 6" d="M239.43,182.528c0,1.89-.151,7.715-8.17,7.715-5.3,0-8.322-2.193-8.322-7.715V136.153c0-8.32,6.884-9.91,9.835-9.91h28.746c1.513,0,7.49,0,7.49,7.263,0,5.069-2.949,7.263-7.49,7.263H243.137c-3.1,0-3.707.53-3.707,3.783v5.069c-1.437.378-6.582,1.513-6.582,8.473,0,3.556,1.212,7.641,6.582,8.7Zm2.5-17.324c-5.976,0-7.263-3.631-7.263-6.884,0-3.48,1.21-7.111,7.263-7.111h15.963c6.126,0,7.338,3.858,7.338,6.96,0,3.177-1.059,7.036-7.338,7.036Z" transform="translate(53.519 0)" fill="#db0850"/>
    <path id="パス_7" data-name="パス 7" d="M267.7,144.08c0-1.816,0-7.414,7.641-7.414,3.933,0,8.17.908,8.17,7.414v22.015c0,1.362,0,6.733,3.783,6.733a6.015,6.015,0,0,0,3.1-1.135,6.385,6.385,0,0,1,3.48-1.286c3.4,0,6.582,3.4,6.582,6.884,0,5.446-8.095,9.228-15.964,9.228-16.793,0-16.793-14.3-16.793-20.954Zm26.781,0c0-2.5.53-7.414,7.639-7.414,4.087,0,8.172.985,8.172,7.414v34.951c0,3.556-1.212,7.413-7.943,7.413-3.4,0-4.54-.908-5.22-1.362,2.723-1.814,5.143-4.084,5.143-7.791a8.763,8.763,0,0,0-7.791-8.624Z" transform="translate(67.142 3.172)" fill="#fab700"/>
    <path id="パス_8" data-name="パス 8" d="M325.6,179.06c0,2.723-.681,7.413-7.641,7.413-4.01,0-8.169-.907-8.169-7.413V144.109c0-4.615,2.118-7.414,7.791-7.414,3.406,0,4.237.531,5.371,1.287-3.177,1.663-5.523,3.781-5.523,7.564,0,1.286.454,8.473,8.17,9.305Zm26.781,0c0,1.967,0,7.413-7.641,7.413-3.858,0-8.17-.831-8.17-7.413V157.121c0-2.194-.151-6.884-3.631-6.884-.983,0-1.816.53-4.161,1.891a6.1,6.1,0,0,1-3.1.832c-3.253,0-6.429-3.1-6.429-7.187,0-5.977,9-9.078,15.432-9.078,17.7,0,17.7,14.676,17.7,20.956Z" transform="translate(79.952 3.181)" fill="#54a421"/>
    <path id="パス_9" data-name="パス 9" d="M63.575,182.528c0,1.89-.15,7.715-8.169,7.715-5.3,0-8.322-2.193-8.322-7.715V136.153c0-8.32,6.884-9.91,9.835-9.91H85.665c1.513,0,7.49,0,7.49,7.263,0,5.069-2.95,7.263-7.49,7.263H67.282c-3.1,0-3.707.53-3.707,3.783v5.069c-1.436.378-6.582,1.513-6.582,8.473,0,3.556,1.212,7.641,6.582,8.7Zm2.5-17.324c-5.976,0-7.261-3.631-7.261-6.884,0-3.48,1.21-7.111,7.261-7.111H82.035c6.126,0,7.338,3.858,7.338,6.96,0,3.177-1.06,7.036-7.338,7.036Z" transform="translate(0 0)" fill="#db0850"/>
  </g>
</svg>
