<svg xmlns="http://www.w3.org/2000/svg" width="75.317" height="41" viewBox="0 0 75.317 41">
  <g id="チケットのアイコン1" transform="translate(0 -116.642)">
    <path id="パス_42" data-name="パス 42" d="M21.56,116.642a3.036,3.036,0,1,1-6.072,0H0v41H15.488a3.036,3.036,0,1,1,6.072,0H75.317v-41ZM18.524,150.43a3.037,3.037,0,1,1,3.035-3.038A3.037,3.037,0,0,1,18.524,150.43Zm0-10.25a3.037,3.037,0,1,1,3.035-3.037A3.036,3.036,0,0,1,18.524,140.18Zm0-10.25a3.037,3.037,0,1,1,3.035-3.037A3.036,3.036,0,0,1,18.524,129.929Z" transform="translate(0 0)" fill="#fff"/>
  </g>
</svg>
