<svg xmlns="http://www.w3.org/2000/svg" width="181.895" height="173.984" viewBox="0 0 181.895 173.984">
  <g id="予約_受付け看板の無料アイコン素材" data-name="予約・受付け看板の無料アイコン素材" transform="translate(0 -11.134)">
    <path id="パス_25" data-name="パス 25" d="M247.888,41.089a4.688,4.688,0,0,1-.711-.6H228.789a4.572,4.572,0,0,1-.711.6V51.86h19.81Z" transform="translate(-147.05 -18.928)" fill="#4b4b4b"/>
    <path id="パス_26" data-name="パス 26" d="M133.169,41.089a4.573,4.573,0,0,1-.711-.6H114.07a4.69,4.69,0,0,1-.711.6V51.86h19.81Z" transform="translate(-73.087 -18.928)" fill="#4b4b4b"/>
    <path id="パス_27" data-name="パス 27" d="M362.66,41.089a4.709,4.709,0,0,1-.711-.6H343.59a4.708,4.708,0,0,1-.711.6V51.86H362.66Z" transform="translate(-221.067 -18.928)" fill="#4b4b4b"/>
    <path id="パス_28" data-name="パス 28" d="M235.407,468.554h-26.04a5.5,5.5,0,0,0-5.5,5.5v5.978h37.04v-5.978A5.5,5.5,0,0,0,235.407,468.554Z" transform="translate(-131.44 -294.915)" fill="#4b4b4b"/>
    <path id="パス_29" data-name="パス 29" d="M178.144,135.844V50.5a10,10,0,0,0-10.006-10h-4.86a4.57,4.57,0,0,1-.711.6V51.86h4.208v83.984H15.119V51.86h4.206V41.089a4.707,4.707,0,0,1-.711-.6h-4.86a10,10,0,0,0-10,10v85.348H0v16.939H82.843v34.684H99.049V152.783H181.9V135.844Z" transform="translate(0 -18.928)" fill="#4b4b4b"/>
    <path id="パス_30" data-name="パス 30" d="M63.657,18.239h2.076v5.684H64.055v9.123a4.789,4.789,0,0,0,9.578,0V23.923H71.957V18.239h2.1a3.105,3.105,0,0,0,3.1-3.1v-.909a3.1,3.1,0,0,0-3.1-3.1h-10.4a3.086,3.086,0,0,0-3.1,3.1v.909A3.087,3.087,0,0,0,63.657,18.239Z" transform="translate(-39.045)" fill="#4b4b4b"/>
    <path id="パス_31" data-name="パス 31" d="M178.377,18.239h2.1v5.684h-1.7v9.123a4.789,4.789,0,0,0,9.577,0V23.923h-1.676V18.239h2.1a3.106,3.106,0,0,0,3.1-3.1v-.909a3.1,3.1,0,0,0-3.1-3.1h-10.4a3.1,3.1,0,0,0-3.1,3.1v.909A3.106,3.106,0,0,0,178.377,18.239Z" transform="translate(-113.008)" fill="#4b4b4b"/>
    <path id="パス_32" data-name="パス 32" d="M293.1,18.239h2.1v5.684H293.5v9.123a4.8,4.8,0,0,0,9.606,0V23.923H301.4V18.239h2.1a3.1,3.1,0,0,0,3.1-3.1v-.909a3.1,3.1,0,0,0-3.1-3.1H293.1a3.1,3.1,0,0,0-3.1,3.1v.909A3.105,3.105,0,0,0,293.1,18.239Z" transform="translate(-186.973)" fill="#4b4b4b"/>
    <path id="パス_33" data-name="パス 33" d="M407.818,18.239h2.1v5.684h-1.706v9.123a4.8,4.8,0,0,0,9.606,0V23.923h-1.7V18.239h2.1a3.106,3.106,0,0,0,3.1-3.1v-.909a3.1,3.1,0,0,0-3.1-3.1h-10.4a3.105,3.105,0,0,0-3.1,3.1v.909A3.106,3.106,0,0,0,407.818,18.239Z" transform="translate(-260.937)" fill="#4b4b4b"/>
    <rect id="長方形_41" data-name="長方形 41" width="53.034" height="5.684" transform="translate(36.918 57.858)" fill="#4b4b4b"/>
    <path id="パス_34" data-name="パス 34" d="M211.975,190.887H103.918v5.684H211.975Z" transform="translate(-67 -115.893)" fill="#4b4b4b"/>
    <path id="パス_35" data-name="パス 35" d="M103.946,239.208h-.028v5.684H211.975v-5.684H103.946Z" transform="translate(-67 -147.047)" fill="#4b4b4b"/>
  </g>
</svg>
