<svg xmlns="http://www.w3.org/2000/svg" width="177.816" height="151.231" viewBox="0 0 177.816 151.231">
  <g id="グループ_15" data-name="グループ 15" transform="translate(-871 -1639.799)">
    <g id="チケットのアイコン1" transform="matrix(0.985, 0.174, -0.174, 0.985, 886.573, 1639.799)">
      <path id="パス_42" data-name="パス 42" d="M47.159,0a6.64,6.64,0,0,1-6.64,6.643A6.641,6.641,0,0,1,33.877,0H0V89.682H33.877a6.641,6.641,0,1,1,13.282,0H164.746V0ZM40.52,73.906a6.644,6.644,0,1,1,6.64-6.645A6.643,6.643,0,0,1,40.52,73.906Zm0-22.421a6.644,6.644,0,1,1,6.64-6.643A6.641,6.641,0,0,1,40.52,51.485Zm0-22.421a6.643,6.643,0,1,1,6.64-6.643A6.641,6.641,0,0,1,40.52,29.064Z" transform="translate(0 0)" fill="#4b4b4b"/>
    </g>
    <g id="チケットのアイコン1-2" data-name="チケットのアイコン1" transform="translate(877 1701.361) rotate(-1)">
      <path id="パス_42-2" data-name="パス 42" d="M47.159,0a6.64,6.64,0,0,1-6.64,6.643A6.641,6.641,0,0,1,33.877,0H0V89.682H33.877a6.641,6.641,0,1,1,13.282,0H164.746V0ZM40.52,73.906a6.644,6.644,0,1,1,6.64-6.645A6.643,6.643,0,0,1,40.52,73.906Zm0-22.421a6.644,6.644,0,1,1,6.64-6.643A6.641,6.641,0,0,1,40.52,51.485Zm0-22.421a6.643,6.643,0,1,1,6.64-6.643A6.641,6.641,0,0,1,40.52,29.064Z" transform="translate(0 0)" fill="#4b4b4b"/>
    </g>
  </g>
</svg>
