<svg id="登録アイコン" xmlns="http://www.w3.org/2000/svg" width="146.859" height="151.524" viewBox="0 0 146.859 151.524">
  <path id="パス_18" data-name="パス 18" d="M257.69,355.643c4.291,4.291,22.34-6.807,26.631-11.1l17.638-17.64-15.535-15.533-17.637,17.637C264.5,333.3,253.4,351.353,257.69,355.643Z" transform="translate(-183.079 -219.225)" fill="#4b4b4b"/>
  <path id="パス_19" data-name="パス 19" d="M405.832,220.049a10.985,10.985,0,0,0-15.533,0l-21.213,21.213,15.535,15.533,21.211-21.213A10.985,10.985,0,0,0,405.832,220.049Zm-27.72,24.025-2.666-2.663L390.3,226.56l2.661,2.661Z" transform="translate(-262.189 -152.662)" fill="#4b4b4b"/>
  <path id="パス_20" data-name="パス 20" d="M116.444,132.641c-4.164,4.16-20,15.1-31.012,15.1h0a14.039,14.039,0,0,1-10.254-4c-13.246-13.251,10.833-41.006,11.1-41.266l1.22-1.22c-1.167-1.289-1.67-3.062-1.67-6.6V82.692c3.363-3.735,4.586-3.27,7.429-17.933,5.751,0,5.38-7.472,8.091-14.1,2.213-5.4.359-7.586-1.5-8.48,1.521-19.669,1.521-33.216-20.8-37.418C70.942-2.175,58.732.18,52.946,1.337a29.709,29.709,0,0,1-11,0l.993,9.319c-8.467,10.16-4.232,23.707-5.6,31.641-1.774.968-3.376,3.2-1.263,8.362,2.714,6.628,2.34,14.1,8.091,14.1,2.845,14.663,4.068,14.2,7.431,17.933V94.649c0,7.472-2.539,7.6-8.326,10.835-13.951,7.8-32.131,12.329-35.386,36.7-.6,4.458,25,9.324,60.822,9.339,35.821-.015,61.416-4.882,60.822-9.339a36.264,36.264,0,0,0-6.12-16.515Z" transform="translate(-7.882 0)" fill="#4b4b4b"/>
</svg>
