<svg xmlns="http://www.w3.org/2000/svg" width="14.37" height="20.91" viewBox="0 0 14.37 20.91">
  <g id="グループ_28" data-name="グループ 28" transform="translate(-80.063)">
    <path id="パス_40" data-name="パス 40" d="M87.249,0a7.186,7.186,0,0,0-7.186,7.186,6.344,6.344,0,0,0,.309,1.789,20.814,20.814,0,0,0,1.482,3.453,69.946,69.946,0,0,0,4.52,7.265l.875,1.217.874-1.218c.01-.013,1.551-2.158,3.1-4.748a40.6,40.6,0,0,0,2.157-4.037,16.168,16.168,0,0,0,.741-1.932,6.341,6.341,0,0,0,.308-1.789A7.186,7.186,0,0,0,87.249,0Zm4.816,8.355a18.86,18.86,0,0,1-1.331,3.078c-.877,1.685-1.972,3.446-2.843,4.776-.234.356-.448.678-.641.964-.608-.9-1.454-2.189-2.281-3.584A36.583,36.583,0,0,1,83.022,9.9a13.282,13.282,0,0,1-.6-1.6,4.206,4.206,0,0,1-.2-1.121,5.032,5.032,0,1,1,10.065,0A4.325,4.325,0,0,1,92.065,8.355Z" fill="#707070"/>
    <path id="パス_41" data-name="パス 41" d="M201.134,118.719a2.337,2.337,0,1,0,2.337,2.337A2.338,2.338,0,0,0,201.134,118.719Z" transform="translate(-113.885 -113.871)" fill="#707070"/>
  </g>
</svg>
