<svg xmlns="http://www.w3.org/2000/svg" width="125.406" height="129.389" viewBox="0 0 125.406 129.389">
  <g id="会員登録アイコン" transform="translate(-1684 -24)">
    <path id="パス_13" data-name="パス 13" d="M257.549,349.177c3.664,3.664,19.077-5.813,22.74-9.475l15.061-15.063-13.266-13.264-15.061,15.061C263.362,330.1,253.887,345.513,257.549,349.177Z" transform="translate(1490.163 -208.687)" fill="#ffc15f"/>
    <path id="パス_14" data-name="パス 14" d="M400.464,219.579a9.38,9.38,0,0,0-13.264,0l-18.115,18.114,13.266,13.264,18.112-18.115A9.38,9.38,0,0,0,400.464,219.579Zm-23.67,20.516-2.277-2.274L387.2,225.139l2.272,2.272Z" transform="translate(1406.195 -138.036)" fill="#ffc15f"/>
    <path id="パス_15" data-name="パス 15" d="M100.585,113.265c-3.556,3.552-17.076,12.89-26.482,12.89h0a11.988,11.988,0,0,1-8.756-3.416C54.034,111.424,74.6,87.723,74.82,87.5l1.042-1.042c-1-1.1-1.426-2.615-1.426-5.636V70.613c2.872-3.189,3.916-2.792,6.344-15.313,4.911,0,4.594-6.381,6.909-12.04,1.89-4.609.306-6.478-1.282-7.241,1.3-16.8,1.3-28.364-17.765-31.952C61.73-1.857,51.3.154,46.363,1.142a25.369,25.369,0,0,1-9.391,0L37.82,9.1c-7.23,8.676-3.614,20.244-4.779,27.019-1.515.826-2.883,2.732-1.079,7.14,2.317,5.66,2,12.04,6.909,12.04,2.43,12.521,3.474,12.124,6.346,15.313v10.21c0,6.381-2.168,6.491-7.11,9.252C26.195,96.734,10.67,100.6,7.89,121.414c-.509,3.806,21.345,7.962,51.937,7.975,30.588-.013,52.444-4.169,51.937-7.975a30.967,30.967,0,0,0-5.226-14.1Z" transform="translate(1676.118 24)" fill="#ffc15f"/>
  </g>
</svg>
