<svg xmlns="http://www.w3.org/2000/svg" width="67.406" height="69.547" viewBox="0 0 67.406 69.547">
  <g id="会員登録アイコン" transform="translate(-1684 -24)">
    <path id="パス_13" data-name="パス 13" d="M257.167,331.693c1.969,1.969,10.254-3.124,12.223-5.093l8.1-8.1-7.13-7.129-8.1,8.1C260.291,321.439,255.2,329.724,257.167,331.693Z" transform="translate(1461.079 -245.08)" fill="#ffc15f"/>
    <path id="パス_14" data-name="パス 14" d="M385.952,218.309a5.042,5.042,0,0,0-7.129,0l-9.737,9.736,7.131,7.129,9.735-9.737A5.042,5.042,0,0,0,385.952,218.309Zm-12.723,11.027-1.224-1.222,6.816-6.816,1.221,1.221Z" transform="translate(1363.978 -163.379)" fill="#ffc15f"/>
    <path id="パス_15" data-name="パス 15" d="M57.71,60.88c-1.911,1.909-9.179,6.929-14.234,6.929h0a6.444,6.444,0,0,1-4.706-1.836c-6.08-6.082,4.972-18.821,5.093-18.941l.56-.56c-.536-.591-.767-1.406-.767-3.029V37.955c1.544-1.714,2.105-1.5,3.41-8.231,2.64,0,2.469-3.43,3.714-6.472,1.016-2.477.165-3.482-.689-3.892.7-9.028.7-15.245-9.549-17.174C36.825-1,31.221.083,28.565.614a13.636,13.636,0,0,1-5.047,0l.456,4.277C20.087,9.555,22.031,15.772,21.4,19.414c-.814.444-1.549,1.468-.58,3.838,1.246,3.042,1.074,6.472,3.714,6.472,1.306,6.73,1.867,6.517,3.411,8.231v5.488c0,3.43-1.165,3.489-3.822,4.973C17.725,52,9.38,54.075,7.886,65.261c-.274,2.046,11.473,4.28,27.916,4.287s28.189-2.241,27.916-4.287a16.645,16.645,0,0,0-2.809-7.58Z" transform="translate(1676.118 24)" fill="#ffc15f"/>
  </g>
</svg>
