<svg xmlns="http://www.w3.org/2000/svg" width="116.233" height="119.045" viewBox="0 0 116.233 119.045">
  <g id="グループ_12" data-name="グループ 12" transform="translate(-1333.408 -7141.478)">
    <g id="商用利用可のコメント_感想のアイコン素材_10" data-name="商用利用可のコメント･感想のアイコン素材 10" transform="translate(1345.908 7153.978)">
      <path id="パス_64" data-name="パス 64" d="M189.309,167.957H158.016a2.229,2.229,0,0,0,0,4.458h31.293a2.229,2.229,0,1,0,0-4.458Z" transform="translate(-128.046 -137.998)" fill="#fff" stroke="#fff" stroke-width="25"/>
      <path id="パス_65" data-name="パス 65" d="M189.309,229.043H158.016a2.228,2.228,0,1,0,0,4.457h31.293a2.228,2.228,0,1,0,0-4.457Z" transform="translate(-128.046 -188.188)" fill="#fff" stroke="#fff" stroke-width="25"/>
      <path id="パス_66" data-name="パス 66" d="M175.9,290.126H158.016a2.228,2.228,0,1,0,0,4.457H175.9a2.228,2.228,0,1,0,0-4.457Z" transform="translate(-128.046 -238.376)" fill="#fff" stroke="#fff" stroke-width="25"/>
      <path id="パス_67" data-name="パス 67" d="M77.489,11.027A49.268,49.268,0,0,0,45.879,0a49.268,49.268,0,0,0-31.61,11.027C5.236,18.562.262,28.732.262,39.663c0,17.487,13.226,32.809,32.058,37.886l5.153,8.926a9.705,9.705,0,0,0,16.81,0l5.154-8.926C78.268,72.472,91.5,57.151,91.5,39.663,91.5,28.732,86.521,18.562,77.489,11.027Zm1.947,39.285c-.3.654-.613,1.3-.963,1.935-.225.4-.485.793-.732,1.188-.217.348-.417.7-.649,1.043-.3.434-.628.848-.949,1.268-.223.29-.429.59-.663.874-.283.343-.6.667-.9,1s-.61.7-.94,1.037c-.19.193-.4.372-.6.56-.476.459-.948.92-1.455,1.353-.017.015-.036.028-.053.042A38.341,38.341,0,0,1,53.164,69L48.3,77.43,45.87,81.607,38.593,69a38.344,38.344,0,0,1-18.352-8.369c-.026-.022-.056-.042-.083-.065-.487-.416-.939-.86-1.4-1.3-.216-.208-.446-.4-.655-.618-.305-.31-.58-.64-.87-.96-.324-.358-.661-.707-.965-1.078-.212-.256-.4-.528-.6-.789-.345-.447-.7-.889-1.012-1.352-.215-.315-.4-.646-.6-.967-.262-.419-.537-.832-.776-1.261-.344-.619-.65-1.255-.944-1.9-.064-.139-.141-.271-.2-.411A25.517,25.517,0,0,1,9.967,39.663c0-16.545,16.078-29.957,35.912-29.957S81.79,23.117,81.79,39.663a25.513,25.513,0,0,1-2.17,10.276C79.564,50.065,79.494,50.186,79.436,50.312Z" transform="translate(-0.262)" fill="#fff" stroke="#fff" stroke-width="25"/>
    </g>
    <g id="商用利用可のコメント_感想のアイコン素材_10-2" data-name="商用利用可のコメント･感想のアイコン素材 10" transform="translate(1345.908 7153.978)">
      <path id="パス_64-2" data-name="パス 64" d="M189.309,167.957H158.016a2.229,2.229,0,0,0,0,4.458h31.293a2.229,2.229,0,1,0,0-4.458Z" transform="translate(-128.046 -137.998)" fill="#f7a434"/>
      <path id="パス_65-2" data-name="パス 65" d="M189.309,229.043H158.016a2.228,2.228,0,1,0,0,4.457h31.293a2.228,2.228,0,1,0,0-4.457Z" transform="translate(-128.046 -188.188)" fill="#f7a434"/>
      <path id="パス_66-2" data-name="パス 66" d="M175.9,290.126H158.016a2.228,2.228,0,1,0,0,4.457H175.9a2.228,2.228,0,1,0,0-4.457Z" transform="translate(-128.046 -238.376)" fill="#f7a434"/>
      <path id="パス_67-2" data-name="パス 67" d="M77.489,11.027A49.268,49.268,0,0,0,45.879,0a49.268,49.268,0,0,0-31.61,11.027C5.236,18.562.262,28.732.262,39.663c0,17.487,13.226,32.809,32.058,37.886l5.153,8.926a9.705,9.705,0,0,0,16.81,0l5.154-8.926C78.268,72.472,91.5,57.151,91.5,39.663,91.5,28.732,86.521,18.562,77.489,11.027Zm1.947,39.285c-.3.654-.613,1.3-.963,1.935-.225.4-.485.793-.732,1.188-.217.348-.417.7-.649,1.043-.3.434-.628.848-.949,1.268-.223.29-.429.59-.663.874-.283.343-.6.667-.9,1s-.61.7-.94,1.037c-.19.193-.4.372-.6.56-.476.459-.948.92-1.455,1.353-.017.015-.036.028-.053.042A38.341,38.341,0,0,1,53.164,69L48.3,77.43,45.87,81.607,38.593,69a38.344,38.344,0,0,1-18.352-8.369c-.026-.022-.056-.042-.083-.065-.487-.416-.939-.86-1.4-1.3-.216-.208-.446-.4-.655-.618-.305-.31-.58-.64-.87-.96-.324-.358-.661-.707-.965-1.078-.212-.256-.4-.528-.6-.789-.345-.447-.7-.889-1.012-1.352-.215-.315-.4-.646-.6-.967-.262-.419-.537-.832-.776-1.261-.344-.619-.65-1.255-.944-1.9-.064-.139-.141-.271-.2-.411A25.517,25.517,0,0,1,9.967,39.663c0-16.545,16.078-29.957,35.912-29.957S81.79,23.117,81.79,39.663a25.513,25.513,0,0,1-2.17,10.276C79.564,50.065,79.494,50.186,79.436,50.312Z" transform="translate(-0.262)" fill="#f7a434"/>
    </g>
  </g>
</svg>
