<svg xmlns="http://www.w3.org/2000/svg" width="38.891" height="34.039" viewBox="0 0 38.891 34.039">
  <path id="heart-regular" d="M34.82,34.433c-4.39-3.692-11.174-3.137-15.374,1.139-4.2-4.277-10.984-4.839-15.374-1.139a11.493,11.493,0,0,0-.805,16.8L16.59,64.81a3.99,3.99,0,0,0,5.712.008L35.625,51.243A11.5,11.5,0,0,0,34.82,34.433ZM33.027,48.676,19.7,62.25a.312.312,0,0,1-.517,0L5.864,48.676a7.833,7.833,0,0,1,.555-11.447,7.7,7.7,0,0,1,10.369.8l2.659,2.712L22.1,38.026a7.7,7.7,0,0,1,10.369-.805A7.867,7.867,0,0,1,33.027,48.676Z" transform="translate(0 -31.978)" fill="#fff"/>
</svg>
